<svg width="161" height="46" viewBox="0 0 161 46" fill="none" xmlns="http://www.w3.org/2000/svg">
<path d="M159.611 40.6951C159.611 43.1465 157.574 45.1322 155.055 45.1322H5.95108C3.43292 45.1322 1.38892 43.1465 1.38892 40.6951V5.31091C1.38892 2.86067 3.43292 0.868042 5.95108 0.868042H155.054C157.574 0.868042 159.61 2.86067 159.61 5.31091L159.611 40.6951Z" fill="white"/>
<path d="M154.574 0.921432C157.318 0.921432 159.55 3.08775 159.55 5.75V40.25C159.55 42.9122 157.318 45.0786 154.574 45.0786H6.42593C3.68222 45.0786 1.44963 42.9122 1.44963 40.25V5.75C1.44963 3.08775 3.68222 0.921432 6.42593 0.921432H154.574ZM154.574 -2.2931e-06H6.42593C3.16815 -2.2931e-06 0.5 2.58894 0.5 5.75V40.25C0.5 43.4111 3.16815 46 6.42593 46H154.574C157.832 46 160.5 43.4111 160.5 40.25V5.75C160.5 2.58894 157.832 -2.2931e-06 154.574 -2.2931e-06Z" fill="#A6A6A6"/>
<path d="M36.2073 22.7516C36.1729 19.0451 39.335 17.2419 39.4795 17.158C37.6887 14.6245 34.913 14.2784 33.9376 14.2508C31.6064 14.0127 29.345 15.6043 28.1575 15.6043C26.9462 15.6043 25.1175 14.2738 23.1465 14.3129C20.6102 14.3508 18.2375 15.7757 16.9361 17.9883C14.2505 22.4997 16.2535 29.1295 18.8265 32.7761C20.1136 34.5621 21.6176 36.5562 23.5862 36.486C25.5121 36.409 26.2315 35.2946 28.5557 35.2946C30.8585 35.2946 31.5341 36.486 33.5418 36.4412C35.6087 36.409 36.9101 34.6472 38.1521 32.8451C39.6395 30.7981 40.2369 28.7822 40.2606 28.6787C40.212 28.6626 36.2464 27.194 36.2073 22.7516Z" fill="black"/>
<path d="M32.4147 11.8519C33.4505 10.5949 34.1593 8.88489 33.9625 7.14954C32.4633 7.21394 30.5883 8.15579 29.5086 9.38514C28.5533 10.4684 27.7 12.244 27.9204 13.9138C29.6046 14.0357 31.3338 13.0893 32.4147 11.8519Z" fill="black"/>
<path d="M58.6334 11.5103C58.6334 12.8638 58.215 13.8827 57.3794 14.567C56.6055 15.1983 55.5056 15.5146 54.0811 15.5146C53.3747 15.5146 52.7702 15.4847 52.2642 15.4249V8.0292C52.9243 7.9257 53.6354 7.8728 54.4034 7.8728C55.7605 7.8728 56.7833 8.15915 57.4731 8.73185C58.2458 9.3793 58.6334 10.3051 58.6334 11.5103ZM57.3237 11.5436C57.3237 10.6662 57.0843 9.9934 56.6055 9.5242C56.1267 9.05615 55.4274 8.82155 54.5065 8.82155C54.1154 8.82155 53.7824 8.84685 53.5062 8.89975V14.5221C53.6591 14.5451 53.9388 14.5555 54.3453 14.5555C55.2959 14.5555 56.0295 14.299 56.5462 13.7861C57.063 13.2732 57.3237 12.5257 57.3237 11.5436Z" fill="black"/>
<path d="M65.5774 12.6924C65.5774 13.5261 65.332 14.2092 64.8413 14.7451C64.327 15.296 63.6455 15.5708 62.7945 15.5708C61.9744 15.5708 61.3213 15.3075 60.8342 14.7785C60.3483 14.2506 60.1053 13.5848 60.1053 12.7821C60.1053 11.9426 60.3554 11.2537 60.8579 10.719C61.3605 10.1842 62.036 9.91626 62.887 9.91626C63.7071 9.91626 64.3661 10.1796 64.8651 10.7075C65.3391 11.2204 65.5774 11.8828 65.5774 12.6924ZM64.2891 12.7315C64.2891 12.2312 64.1776 11.8023 63.956 11.4446C63.6953 11.0122 63.3243 10.796 62.8419 10.796C62.343 10.796 61.9637 11.0122 61.703 11.4446C61.4802 11.8023 61.3699 12.2381 61.3699 12.7533C61.3699 13.2536 61.4813 13.6825 61.703 14.0402C61.972 14.4726 62.3465 14.6888 62.8301 14.6888C63.3042 14.6888 63.6763 14.4691 63.9442 14.0287C64.1741 13.6641 64.2891 13.2317 64.2891 12.7315Z" fill="black"/>
<path d="M74.888 10.0269L73.1399 15.448H72.0021L71.2779 13.0939C71.0942 12.5063 70.9449 11.9221 70.8288 11.3425H70.8062C70.6984 11.9382 70.5491 12.5212 70.3571 13.0939L69.5879 15.448H68.4371L66.7932 10.0269H68.0697L68.7014 12.604C68.8542 13.2135 68.9799 13.7943 69.0806 14.344H69.1031C69.1956 13.8909 69.3485 13.3136 69.5642 12.6155L70.3571 10.028H71.3692L72.1289 12.5603C72.3126 13.1779 72.4619 13.7724 72.5769 14.3451H72.6113C72.6954 13.7874 72.8222 13.1928 72.9905 12.5603L73.6685 10.028H74.888V10.0269Z" fill="black"/>
<path d="M81.3273 15.4478H80.0853V12.3428C80.0853 11.386 79.7108 10.9076 78.9594 10.9076C78.5908 10.9076 78.2933 11.0387 78.0622 11.302C77.8334 11.5654 77.7173 11.8759 77.7173 12.2312V15.4466H76.4752V11.5757C76.4752 11.0996 76.4598 10.5833 76.4302 10.0244H77.5217L77.5798 10.8719H77.6142C77.7588 10.6086 77.9745 10.3912 78.2577 10.2176C78.5943 10.0152 78.9712 9.91284 79.3836 9.91284C79.9051 9.91284 80.3389 10.0761 80.6838 10.4039C81.1128 10.8052 81.3273 11.4044 81.3273 12.2002V15.4478Z" fill="black"/>
<path d="M84.7525 15.4479H83.5116V7.53931H84.7525V15.4479Z" fill="black"/>
<path d="M92.0651 12.6924C92.0651 13.5261 91.8198 14.2092 91.3291 14.7451C90.8148 15.296 90.1321 15.5708 89.2823 15.5708C88.461 15.5708 87.808 15.3075 87.322 14.7785C86.8361 14.2506 86.5931 13.5848 86.5931 12.7821C86.5931 11.9426 86.8432 11.2537 87.3457 10.719C87.8483 10.1842 88.5238 9.91626 89.3736 9.91626C90.1949 9.91626 90.8527 10.1796 91.3528 10.7075C91.8269 11.2204 92.0651 11.8828 92.0651 12.6924ZM90.7757 12.7315C90.7757 12.2312 90.6642 11.8023 90.4426 11.4446C90.1831 11.0122 89.8109 10.796 89.3297 10.796C88.8296 10.796 88.4503 11.0122 88.1908 11.4446C87.968 11.8023 87.8577 12.2381 87.8577 12.7533C87.8577 13.2536 87.9691 13.6825 88.1908 14.0402C88.4598 14.4726 88.8343 14.6888 89.3179 14.6888C89.792 14.6888 90.1629 14.4691 90.4308 14.0287C90.6619 13.6641 90.7757 13.2317 90.7757 12.7315Z" fill="black"/>
<path d="M98.0764 15.4478H96.9612L96.8687 14.8233H96.8343C96.4527 15.3213 95.9087 15.5708 95.2023 15.5708C94.6749 15.5708 94.2483 15.4064 93.9271 15.0798C93.6355 14.7831 93.4897 14.4139 93.4897 13.9758C93.4897 13.3134 93.7742 12.8085 94.3466 12.4589C94.9179 12.1093 95.7215 11.938 96.7561 11.946V11.8448C96.7561 11.1307 96.3698 10.7742 95.5958 10.7742C95.0447 10.7742 94.5588 10.9087 94.1392 11.1755L93.8868 10.3843C94.4059 10.0727 95.0471 9.91626 95.8032 9.91626C97.2634 9.91626 97.9958 10.6638 97.9958 12.1588V14.1552C97.9958 14.6968 98.0231 15.1281 98.0764 15.4478ZM96.7869 13.5848V12.7487C95.4169 12.7257 94.7318 13.0903 94.7318 13.8412C94.7318 14.1241 94.81 14.3357 94.97 14.4772C95.13 14.6186 95.3339 14.6888 95.5769 14.6888C95.8495 14.6888 96.1043 14.6048 96.3366 14.4381C96.57 14.2702 96.7135 14.0574 96.7668 13.7964C96.7798 13.7377 96.7869 13.6664 96.7869 13.5848Z" fill="black"/>
<path d="M105.134 15.4479H104.032L103.974 14.5773H103.94C103.588 15.2397 102.988 15.5709 102.145 15.5709C101.472 15.5709 100.911 15.3145 100.467 14.8016C100.023 14.2887 99.8009 13.6228 99.8009 12.8052C99.8009 11.9277 100.041 11.217 100.525 10.6742C100.993 10.1682 101.567 9.91521 102.249 9.91521C103 9.91521 103.525 10.1602 103.823 10.6512H103.847V7.53931H105.09V13.9874C105.09 14.5152 105.105 15.0017 105.134 15.4479ZM103.847 13.1617V12.2578C103.847 12.1014 103.835 11.9749 103.813 11.8783C103.743 11.5885 103.592 11.3447 103.364 11.148C103.132 10.9514 102.854 10.8525 102.533 10.8525C102.069 10.8525 101.707 11.0307 101.44 11.3884C101.176 11.746 101.042 12.2026 101.042 12.7603C101.042 13.2962 101.169 13.7309 101.423 14.0656C101.692 14.4221 102.055 14.6003 102.509 14.6003C102.917 14.6003 103.243 14.452 103.49 14.1541C103.73 13.8793 103.847 13.5481 103.847 13.1617Z" fill="black"/>
<path d="M115.757 12.6924C115.757 13.5261 115.512 14.2092 115.021 14.7451C114.507 15.296 113.826 15.5708 112.974 15.5708C112.155 15.5708 111.502 15.3075 111.014 14.7785C110.528 14.2506 110.285 13.5848 110.285 12.7821C110.285 11.9426 110.535 11.2537 111.038 10.719C111.54 10.1842 112.216 9.91626 113.068 9.91626C113.887 9.91626 114.547 10.1796 115.045 10.7075C115.519 11.2204 115.757 11.8828 115.757 12.6924ZM114.47 12.7315C114.47 12.2312 114.359 11.8023 114.137 11.4446C113.875 11.0122 113.505 10.796 113.022 10.796C112.524 10.796 112.145 11.0122 111.883 11.4446C111.66 11.8023 111.55 12.2381 111.55 12.7533C111.55 13.2536 111.661 13.6825 111.883 14.0402C112.152 14.4726 112.526 14.6888 113.01 14.6888C113.484 14.6888 113.857 14.4691 114.125 14.0287C114.354 13.6641 114.47 13.2317 114.47 12.7315Z" fill="black"/>
<path d="M122.435 15.4478H121.195V12.3428C121.195 11.386 120.82 10.9076 120.067 10.9076C119.699 10.9076 119.401 11.0387 119.171 11.302C118.941 11.5654 118.827 11.8759 118.827 12.2312V15.4466H117.583V11.5757C117.583 11.0996 117.569 10.5833 117.539 10.0244H118.63L118.688 10.8719H118.722C118.868 10.6086 119.084 10.3912 119.366 10.2176C119.704 10.0152 120.079 9.91284 120.493 9.91284C121.013 9.91284 121.447 10.0761 121.792 10.4039C122.222 10.8052 122.435 11.4044 122.435 12.2002V15.4478Z" fill="black"/>
<path d="M130.795 10.9294H129.427V13.5629C129.427 14.2322 129.67 14.5668 130.151 14.5668C130.374 14.5668 130.559 14.5484 130.705 14.5105L130.737 15.4247C130.491 15.5144 130.169 15.5593 129.772 15.5593C129.281 15.5593 128.9 15.4144 128.623 15.1246C128.346 14.8348 128.209 14.3472 128.209 13.6629V10.9294H127.392V10.0266H128.209V9.03301L129.426 8.67651V10.0255H130.794V10.9294H130.795Z" fill="black"/>
<path d="M137.37 15.4479H136.127V12.3659C136.127 11.3941 135.752 10.9077 135.002 10.9077C134.426 10.9077 134.033 11.1894 133.817 11.7529C133.78 11.8714 133.759 12.0163 133.759 12.1865V15.4467H132.518V7.53931H133.759V10.8065H133.783C134.174 10.2119 134.734 9.91521 135.461 9.91521C135.975 9.91521 136.401 10.0785 136.738 10.4063C137.159 10.8145 137.37 11.4217 137.37 12.2244V15.4479Z" fill="black"/>
<path d="M144.153 12.4807C144.153 12.6969 144.136 12.8786 144.107 13.027H140.382C140.398 13.5629 140.576 13.9711 140.921 14.254C141.236 14.507 141.643 14.6335 142.14 14.6335C142.691 14.6335 143.194 14.5484 143.647 14.3771L143.841 15.2143C143.311 15.4374 142.688 15.5489 141.966 15.5489C141.101 15.5489 140.419 15.3017 139.926 14.8072C139.431 14.3127 139.186 13.6491 139.186 12.8165C139.186 11.9989 139.414 11.3181 139.875 10.7753C140.357 10.1957 141.007 9.90588 141.829 9.90588C142.632 9.90588 143.243 10.1957 143.655 10.7753C143.988 11.2353 144.153 11.8045 144.153 12.4807ZM142.968 12.1691C142.977 11.8114 142.895 11.5032 142.727 11.2433C142.511 10.9087 142.183 10.7408 141.739 10.7408C141.333 10.7408 141.003 10.9041 140.75 11.2318C140.544 11.4929 140.422 11.8045 140.382 12.1691H142.968Z" fill="black"/>
<path d="M64.0792 36.2295H61.3877L59.9133 31.7341H54.7886L53.3841 36.2295H50.7637L55.841 20.9253H58.977L64.0792 36.2295ZM59.4689 29.8481L58.1355 25.8519C57.9945 25.4436 57.7302 24.4822 57.3403 22.9688H57.2929C57.1376 23.6197 56.8875 24.5811 56.5438 25.8519L55.2342 29.8481H59.4689Z" fill="black"/>
<path d="M77.1364 30.5762C77.1364 32.453 76.6137 33.9365 75.5684 35.0256C74.6321 35.995 73.4694 36.4792 72.0816 36.4792C70.5835 36.4792 69.5073 35.9571 68.8519 34.9129H68.8045V40.7261H66.2777V28.8271C66.2777 27.6472 66.2457 26.4362 66.1841 25.1942H68.4063L68.5473 26.9434H68.5947C69.4374 25.6255 70.7162 24.9677 72.4324 24.9677C73.774 24.9677 74.894 25.4817 75.79 26.511C76.6884 27.5414 77.1364 28.8961 77.1364 30.5762ZM74.5622 30.6659C74.5622 29.5918 74.3133 28.7063 73.8131 28.0094C73.2667 27.2826 72.5331 26.9192 71.6134 26.9192C70.99 26.9192 70.4235 27.1216 69.9174 27.5207C69.4102 27.9232 69.0783 28.4487 68.923 29.0996C68.8448 29.4032 68.8057 29.6516 68.8057 29.8471V31.6871C68.8057 32.4898 69.0593 33.1672 69.5666 33.7203C70.0739 34.2735 70.7328 34.5495 71.5435 34.5495C72.4952 34.5495 73.2359 34.193 73.7657 33.4823C74.2967 32.7704 74.5622 31.832 74.5622 30.6659Z" fill="black"/>
<path d="M90.2173 30.5762C90.2173 32.453 89.6947 33.9365 88.6482 35.0256C87.7131 35.995 86.5504 36.4792 85.1625 36.4792C83.6645 36.4792 82.5883 35.9571 81.9341 34.9129H81.8867V40.7261H79.3599V28.8271C79.3599 27.6472 79.3279 26.4362 79.2662 25.1942H81.4885L81.6295 26.9434H81.6769C82.5184 25.6255 83.7972 24.9677 85.5145 24.9677C86.855 24.9677 87.975 25.4817 88.8734 26.511C89.7682 27.5414 90.2173 28.8961 90.2173 30.5762ZM87.6431 30.6659C87.6431 29.5918 87.393 28.7063 86.8929 28.0094C86.3465 27.2826 85.6153 26.9192 84.6944 26.9192C84.0698 26.9192 83.5045 27.1216 82.9972 27.5207C82.4899 27.9232 82.1593 28.4487 82.004 29.0996C81.927 29.4032 81.8867 29.6516 81.8867 29.8471V31.6871C81.8867 32.4898 82.1403 33.1672 82.6452 33.7203C83.1525 34.2723 83.8114 34.5495 84.6245 34.5495C85.5762 34.5495 86.3169 34.193 86.8467 33.4823C87.3776 32.7704 87.6431 31.832 87.6431 30.6659Z" fill="black"/>
<path d="M104.842 31.9378C104.842 33.2396 104.377 34.2988 103.441 35.1164C102.414 36.01 100.983 36.4562 99.1452 36.4562C97.448 36.4562 96.0874 36.1388 95.0575 35.5028L95.643 33.4593C96.7523 34.1102 97.9695 34.4368 99.2957 34.4368C100.247 34.4368 100.988 34.2275 101.52 33.8112C102.05 33.3949 102.314 32.836 102.314 32.1391C102.314 31.5181 102.096 30.9948 101.659 30.5705C101.224 30.1461 100.497 29.7517 99.483 29.3871C96.7215 28.3878 95.3419 26.9238 95.3419 24.9987C95.3419 23.7406 95.8255 22.7091 96.7938 21.9064C97.7585 21.1025 99.0456 20.7012 100.655 20.7012C102.09 20.7012 103.283 20.9438 104.234 21.428L103.603 23.4267C102.714 22.9575 101.709 22.7229 100.584 22.7229C99.6951 22.7229 99.0006 22.9356 98.5028 23.3588C98.0821 23.7372 97.8711 24.1983 97.8711 24.7446C97.8711 25.3495 98.1117 25.8497 98.5953 26.243C99.016 26.6064 99.7805 26.9997 100.89 27.4241C102.247 27.9542 103.244 28.5741 103.885 29.2848C104.524 29.9932 104.842 30.8798 104.842 31.9378Z" fill="black"/>
<path d="M113.197 27.0341H110.412V32.392C110.412 33.7547 110.902 34.4355 111.886 34.4355C112.338 34.4355 112.712 34.3976 113.008 34.3217L113.078 36.1835C112.581 36.3641 111.925 36.4549 111.113 36.4549C110.115 36.4549 109.336 36.1594 108.773 35.5694C108.212 34.9783 107.93 33.987 107.93 32.5944V27.0318H106.271V25.1918H107.93V23.1713L110.412 22.4445V25.1918H113.197V27.0341Z" fill="black"/>
<path d="M125.763 30.621C125.763 32.3173 125.263 33.7099 124.265 34.7989C123.219 35.9202 121.83 36.4791 120.098 36.4791C118.43 36.4791 117.101 35.942 116.11 34.8679C115.119 33.7938 114.624 32.438 114.624 30.8038C114.624 29.0938 115.134 27.6931 116.156 26.6041C117.177 25.5139 118.554 24.9688 120.286 24.9688C121.954 24.9688 123.297 25.5058 124.31 26.5811C125.28 27.6241 125.763 28.9708 125.763 30.621ZM123.142 30.7003C123.142 29.6826 122.918 28.8098 122.464 28.0818C121.934 27.2009 121.177 26.7616 120.195 26.7616C119.18 26.7616 118.408 27.2021 117.878 28.0818C117.424 28.8109 117.2 29.6975 117.2 30.7463C117.2 31.7641 117.424 32.6369 117.878 33.3637C118.425 34.2446 119.188 34.6839 120.173 34.6839C121.138 34.6839 121.895 34.2354 122.441 33.3407C122.907 32.599 123.142 31.7169 123.142 30.7003Z" fill="black"/>
<path d="M133.977 27.3505C133.727 27.3056 133.46 27.2826 133.18 27.2826C132.291 27.2826 131.604 27.608 131.12 28.2601C130.7 28.8351 130.489 29.5619 130.489 30.4394V36.2296H127.963L127.987 28.6695C127.987 27.3976 127.955 26.2396 127.892 25.1954H130.093L130.185 27.3068H130.255C130.522 26.5811 130.943 25.9969 131.519 25.5588C132.081 25.1643 132.689 24.9677 133.345 24.9677C133.578 24.9677 133.789 24.9838 133.977 25.0125V27.3505Z" fill="black"/>
<path d="M145.277 30.1897C145.277 30.629 145.248 30.9993 145.185 31.3018H137.605C137.634 32.392 138 33.2257 138.704 33.8007C139.343 34.3148 140.169 34.5724 141.184 34.5724C142.306 34.5724 143.33 34.3987 144.251 34.0503L144.647 35.7523C143.571 36.2077 142.3 36.4342 140.834 36.4342C139.071 36.4342 137.686 35.9305 136.679 34.9243C135.674 33.918 135.17 32.5668 135.17 30.8717C135.17 29.2076 135.638 27.8219 136.576 26.7167C137.557 25.5368 138.883 24.9469 140.552 24.9469C142.191 24.9469 143.432 25.5368 144.275 26.7167C144.942 27.654 145.277 28.8132 145.277 30.1897ZM142.868 29.5538C142.885 28.827 142.72 28.1991 142.377 27.6689C141.94 26.987 141.268 26.6466 140.364 26.6466C139.538 26.6466 138.866 26.9789 138.352 27.6459C137.932 28.1761 137.682 28.812 137.605 29.5526H142.868V29.5538Z" fill="black"/>
</svg>
