<svg width="226" height="182" viewBox="0 0 226 182" fill="none" xmlns="http://www.w3.org/2000/svg">
<path d="M148.708 101.898C143.94 104.75 135.446 108.323 126.766 104.651L121.155 102.277L132.399 89.7065C123.426 79.8397 118.462 66.9922 118.476 53.6718C118.49 40.3514 123.48 27.5141 132.473 17.6656C141.466 7.81714 153.816 1.66435 167.113 0.408216C180.409 -0.84792 193.698 2.88276 204.385 10.8721C215.072 18.8614 222.391 30.5358 224.912 43.6168C227.433 56.6977 224.976 70.2463 218.021 81.6178C211.065 92.9894 200.11 101.368 187.294 105.118C174.478 108.868 160.721 107.72 148.708 101.898V101.898ZM127.164 53.6418C127.139 59.7822 128.389 65.8613 130.834 71.4968C133.279 77.1322 136.867 82.2021 141.372 86.3875L144.474 89.2943L137.398 97.2045C141.084 96.4587 144.294 94.4703 145.922 93.3154L148.155 91.7305L150.557 93.0468C157.197 96.6723 164.645 98.5723 172.214 98.5716C197.055 98.5716 217.265 78.4162 217.265 53.6418C217.265 28.8675 197.055 8.71204 172.214 8.71204C147.374 8.71204 127.164 28.8675 127.164 53.6418V53.6418Z" fill="#3F3D56"/>
<path d="M122.796 53.6418C122.796 26.422 144.922 4.35596 172.214 4.35596C199.507 4.35596 221.632 26.422 221.632 53.6418C221.632 80.8616 199.507 102.928 172.214 102.928C163.908 102.94 155.734 100.854 148.454 96.8648C145.038 99.2888 136.704 104.124 128.471 100.641L138.381 89.562C133.455 84.9587 129.53 79.395 126.849 73.216C124.168 67.037 122.789 60.3745 122.796 53.6418Z" fill="#2356E7"/>
<path opacity="0.1" d="M213.214 53.7487C213.214 27.9972 193.41 6.86226 168.163 4.65669C169.603 4.53093 171.059 4.46289 172.531 4.46289C199.824 4.46289 221.949 26.5289 221.949 53.7487C221.949 80.9686 199.824 103.035 172.531 103.035C171.061 103.035 169.608 102.966 168.17 102.84C193.413 100.631 213.214 79.4979 213.214 53.7487Z" fill="black"/>
<path d="M58.3358 170.367C45.9878 170.373 34.013 166.146 24.4182 158.394C14.8235 150.642 8.19182 139.837 5.63468 127.789C3.07754 115.74 4.75031 103.182 10.3727 92.2176C15.995 81.2533 25.2252 72.5494 36.5165 67.5646C47.8077 62.5799 60.4738 61.6173 72.3921 64.838C84.3103 68.0588 94.7564 75.2672 101.98 85.2552C109.203 95.2433 112.765 107.404 112.068 119.699C111.371 131.995 106.457 143.677 98.1511 152.79L109.395 165.361L103.784 167.734C95.1041 171.406 86.6098 167.833 81.8422 164.982C74.5151 168.524 66.4785 170.365 58.3358 170.367ZM58.3358 71.7953C33.4951 71.7953 13.2856 91.9508 13.2856 116.725C13.2856 141.5 33.4951 161.655 58.3358 161.655C65.9055 161.656 73.3535 159.756 79.9931 156.13L82.3952 154.814L84.6285 156.399C86.2562 157.554 89.4662 159.542 93.1517 160.288L86.0762 152.378L89.1777 149.471C93.6829 145.285 97.2709 140.216 99.7161 134.58C102.161 128.945 103.411 122.866 103.386 116.725C103.386 91.9508 83.1766 71.7953 58.3358 71.7953Z" fill="#3F3D56"/>
<path d="M107.754 116.725C107.754 89.5052 85.6286 67.4392 58.3358 67.4392C31.043 67.4392 8.91785 89.5052 8.91785 116.725C8.91785 143.945 31.043 166.011 58.3358 166.011C66.6423 166.023 74.8165 163.937 82.0964 159.948C85.5125 162.372 93.846 167.207 102.079 163.724L92.1688 152.645C97.095 148.042 101.02 142.478 103.701 136.299C106.382 130.12 107.762 123.458 107.754 116.725Z" fill="#2356E7"/>
<path opacity="0.1" d="M17.6534 116.476C17.6534 90.7247 37.4571 69.5898 62.7036 67.3842C61.2641 67.2585 59.8081 67.1904 58.3359 67.1904C31.043 67.1904 8.91785 89.2564 8.91785 116.476C8.91785 143.696 31.043 165.762 58.3359 165.762C59.8058 165.762 61.2594 165.693 62.6967 165.568C37.4535 163.359 17.6534 142.225 17.6534 116.476Z" fill="black"/>
<path d="M183.816 37.984C180.582 32.5352 174.185 32.2813 174.185 32.2813C174.185 32.2813 167.952 31.4863 163.953 39.7848C160.226 47.5197 155.082 54.9878 163.125 56.7985L164.578 52.2889L165.478 57.1342C166.623 57.2164 167.771 57.236 168.919 57.1929C177.532 56.9156 185.735 57.274 185.471 54.1915C185.12 50.0937 186.927 43.2267 183.816 37.984Z" fill="#2F2E41"/>
<path d="M162.666 85.7009C162.571 86.3002 162.433 86.892 162.253 87.4717C162.051 88.0391 161.739 88.5639 161.554 89.1371C160.964 90.9645 161.781 93.0019 163.087 94.4124C164.219 95.6307 165.681 96.4962 167.295 96.9046C168.484 97.1582 169.696 97.2853 170.912 97.2836C174.273 97.3973 177.721 97.499 180.906 96.4217C181.912 96.0729 182.884 95.6325 183.809 95.1061C184.101 94.9673 184.359 94.7652 184.563 94.5145C184.776 94.1473 184.871 93.7236 184.835 93.3008C184.827 91.8797 184.538 90.4658 184.607 89.0463C184.645 88.2601 184.793 87.4745 184.72 86.6906C184.619 85.8004 184.246 84.963 183.649 84.2929C183.053 83.6227 182.264 83.1528 181.39 82.9472C180.486 82.7537 179.549 82.8591 178.629 82.9473C176.242 83.1762 173.844 83.2831 171.445 83.2677C168.994 83.2521 166.559 82.879 164.12 82.84C163.399 82.8285 163.413 83.0502 163.184 83.7463C162.972 84.387 162.799 85.0397 162.666 85.7009Z" fill="#2F2E41"/>
<path d="M169.621 50.6105C169.503 51.2256 169.376 51.8631 169.005 52.3685C168.579 52.95 167.884 53.2823 167.425 53.8388C166.735 54.6765 166.695 55.8552 166.692 56.9396C166.69 57.9385 166.71 59.004 167.269 59.8332C167.666 60.3483 168.16 60.7821 168.722 61.1109C170.816 62.5188 173.08 63.9519 175.605 63.9984C176.652 64.0176 177.774 63.7481 178.462 62.962C178.76 62.5927 178.993 62.1768 179.154 61.7312C179.8 60.1436 180.191 58.4646 180.314 56.7558C180.407 55.9524 180.332 55.1386 180.093 54.3657C179.786 53.5126 179.166 52.8106 178.756 52.0018C178.271 51.0399 178.094 49.953 178.248 48.8876C178.269 48.8126 178.262 48.7328 178.23 48.6619C178.197 48.6239 178.155 48.5943 178.107 48.5752C178.06 48.5562 178.009 48.5483 177.959 48.5521L172.951 48.1926C172.485 48.1695 172.02 48.1165 171.561 48.0339C171.291 47.9792 170.578 47.5968 170.32 47.6985C169.844 47.8867 169.719 50.1005 169.621 50.6105Z" fill="#A0616A"/>
<path opacity="0.1" d="M169.621 50.7665C169.503 51.3816 169.376 52.0191 169.005 52.5245C168.579 53.106 167.884 53.4383 167.425 53.9948C166.735 54.8325 166.695 56.0112 166.692 57.0956C166.69 58.0945 166.71 59.16 167.269 59.9892C167.666 60.5043 168.16 60.9381 168.722 61.2669C170.816 62.6748 173.08 64.1079 175.605 64.1544C176.652 64.1736 177.774 63.9041 178.462 63.118C178.76 62.7487 178.993 62.3328 179.154 61.8872C179.8 60.2996 180.191 58.6206 180.314 56.9118C180.407 56.1084 180.332 55.2946 180.093 54.5217C179.786 53.6686 179.166 52.9666 178.756 52.1577C178.271 51.1959 178.094 50.109 178.248 49.0436C178.269 48.9686 178.262 48.8888 178.23 48.8179C178.197 48.7799 178.155 48.7503 178.107 48.7312C178.06 48.7122 178.009 48.7043 177.959 48.7081L172.951 48.3486C172.485 48.3255 172.02 48.2725 171.561 48.19C171.291 48.1352 170.578 47.7528 170.32 47.8545C169.844 48.0427 169.719 50.2565 169.621 50.7665Z" fill="black"/>
<path d="M174.41 51.2802C178.468 51.2802 181.757 47.9997 181.757 43.953C181.757 39.9062 178.468 36.6257 174.41 36.6257C170.353 36.6257 167.063 39.9062 167.063 43.953C167.063 47.9997 170.353 51.2802 174.41 51.2802Z" fill="#A0616A"/>
<path d="M170.652 60.3643C171.014 60.7835 171.452 61.1322 171.942 61.3927C172.453 61.6033 173.001 61.7075 173.554 61.6988C174.878 61.736 176.314 61.494 177.235 60.5444C178.423 59.3204 178.384 57.3461 179.315 55.9181C179.39 55.7886 179.492 55.677 179.615 55.5909C179.771 55.5062 179.947 55.4657 180.125 55.474C181.3 55.463 182.325 56.2234 183.249 56.9481C183.684 57.2467 184.057 57.626 184.348 58.0653C184.531 58.4209 184.656 58.8031 184.719 59.1978C185.178 61.4307 185.326 63.7139 185.474 65.9884C185.555 67.2448 185.637 68.5023 185.631 69.7613C185.611 73.909 184.644 77.9874 183.683 82.0229C183.559 82.5429 183.389 83.1241 182.915 83.3731C182.704 83.4679 182.477 83.5231 182.246 83.5361C179.492 83.8586 176.733 84.1815 173.962 84.2241C172.88 84.2407 171.799 84.2146 170.718 84.1457C170.532 84.1433 170.347 84.1112 170.171 84.0507C169.933 83.9364 169.727 83.7626 169.576 83.5462C168.076 81.6619 167.988 79.0568 167.997 76.6513C168.021 70.77 168.232 64.8934 168.629 59.0215C168.662 58.5369 168.67 57.9483 168.319 57.567C169.001 58.5748 169.782 59.5119 170.652 60.3643Z" fill="white"/>
<path d="M169.095 51.9039C168.847 52.3518 167.018 53.4642 166.665 53.8355C164.691 55.9099 161.09 55.8321 159.285 58.0539C158.65 58.8357 158.32 59.8179 158.077 60.7944C157.734 62.1755 157.551 63.6817 158.126 64.9839C158.679 66.237 159.843 67.1033 160.634 68.2226C161.502 69.4516 161.892 70.9438 162.266 72.4001C162.542 73.4753 162.821 74.5772 162.713 75.682C162.591 76.9381 161.982 78.0882 161.622 79.2981C161.262 80.508 161.2 81.949 162.032 82.8998C162.643 83.5984 163.602 83.8753 164.518 84.0311C165.692 84.207 166.876 84.3098 168.062 84.3388C169.11 84.3849 170.265 84.3939 171.07 83.7241C171.705 83.1956 171.982 82.338 172.017 81.5136C172.053 80.6892 171.881 79.8721 171.773 79.0539C171.662 78.2057 171.619 77.3502 171.583 76.4955C171.422 72.6606 171.4 68.8233 171.517 64.9834C171.576 64.1854 171.537 63.3831 171.4 62.5946C171.175 61.5674 170.619 60.6495 170.154 59.7057C169.226 57.9281 168.806 55.9303 168.939 53.9306C169.08 51.8754 169.978 50.3098 169.095 51.9039Z" fill="white"/>
<path d="M179.412 52.0597C179.79 52.4472 181.074 52.5749 181.555 52.8244C182.007 53.0327 182.479 53.1957 182.964 53.3108C184.718 53.8154 186.386 54.579 187.913 55.5761C188.23 55.7613 188.511 56.0029 188.74 56.2891C188.983 56.6818 189.139 57.1212 189.198 57.5784C189.434 58.7414 189.67 59.9185 189.617 61.1038C189.561 62.362 189.181 63.5805 188.804 64.7826L187.396 69.2739C186.344 72.6263 185.286 76.0118 184.99 79.512C184.827 81.4519 184.899 83.4045 185.207 85.3269C185.236 85.4204 185.244 85.519 185.232 85.6161C185.22 85.7132 185.187 85.8066 185.136 85.8901C185.043 85.9816 184.921 86.0376 184.791 86.0484C184.111 86.1544 183.453 85.8087 182.837 85.5028C180.955 84.5684 178.945 83.9127 176.873 83.5564C177.683 82.3892 178.308 81.1047 178.725 79.7479C178.963 78.8863 179.15 78.0118 179.285 77.1286L179.94 73.3488C180.207 71.9673 180.395 70.5717 180.502 69.169C180.552 68.6426 180.521 68.1117 180.411 67.5944C180.26 67.1022 180.06 66.6265 179.813 66.1745C178.733 63.9342 178.226 61.3775 178.651 58.9281C178.837 57.8562 179.198 56.7828 179.048 55.7054C178.903 54.6695 179.053 53.8644 178.787 52.8392C177.693 48.63 178.701 51.3309 179.412 52.0597Z" fill="white"/>
<path d="M159.266 61.5961C158.774 62.615 157.951 63.483 157.671 64.579C157.562 65.0912 157.515 65.6147 157.532 66.1381C157.483 66.9268 157.561 67.7183 157.763 68.4824C157.92 68.9657 158.174 69.4114 158.357 69.8852C158.613 70.5472 158.727 71.2552 158.692 71.9636C158.642 72.9451 158.308 73.8978 158.282 74.8801C158.241 76.425 158.957 77.8773 159.656 79.2564C159.832 78.8218 160.101 78.4308 160.444 78.1108C160.788 77.7908 161.197 77.5494 161.644 77.4036C162.09 77.2577 162.563 77.211 163.03 77.2666C163.497 77.3222 163.945 77.4788 164.345 77.7255C164.505 77.5294 164.581 77.2781 164.556 77.0264C164.608 75.2341 164.658 73.4418 164.706 71.6495C164.781 68.8775 164.854 66.0684 164.214 63.3697C163.925 62.1512 163.476 60.9375 162.653 59.9924C162.219 59.4948 160.747 58.184 160.036 58.7415C159.716 58.9922 159.79 59.6746 159.74 60.0202C159.663 60.5664 159.503 61.0978 159.266 61.5961Z" fill="white"/>
<path d="M189.761 58.6597C189.959 59.3945 190.044 60.155 190.013 60.9152C190.022 62.4645 190.002 64.0137 189.951 65.5626C189.959 66.357 189.857 67.1488 189.648 67.9155C189.489 68.4141 189.244 68.8817 189.08 69.3787C188.588 70.868 188.857 72.4833 188.899 74.0508C188.929 74.5581 188.885 75.0671 188.77 75.5621C188.51 76.5339 187.812 77.3191 187.325 78.1996C186.862 79.0359 186.583 79.9733 186.031 80.7534C185.478 81.5335 184.522 82.1516 183.595 81.9121C182.892 81.7307 182.393 81.1106 182.048 80.4741C181.295 79.0746 181.037 77.4625 181.317 75.8987C181.663 73.9962 182.784 72.3084 183.188 70.4172C183.743 67.8202 182.9 65.1403 182.925 62.4851C182.913 62.0688 182.97 61.6535 183.092 61.2555C183.304 60.649 183.759 60.1646 184.18 59.6782C184.706 59.0703 185.194 58.4313 185.642 57.7647C185.943 57.3168 186.352 56.165 186.886 56.0692C188.078 55.8554 189.466 57.7415 189.761 58.6597Z" fill="white"/>
<path d="M153.082 84.546C152.423 84.3808 151.744 84.3088 151.065 84.3322C150.352 84.3715 149.655 84.5619 149.021 84.8907C148.386 85.2195 147.83 85.6791 147.388 86.239C146.946 86.799 146.628 87.4464 146.456 88.1382C146.284 88.83 146.262 89.5504 146.391 90.2514C146.555 91.0108 146.824 91.7439 147.19 92.4298C147.725 93.5126 148.367 94.5928 149.357 95.2867C149.954 95.6682 150.596 95.9732 151.27 96.1946L156.486 98.1543C157.253 98.4426 158.02 98.7309 158.795 98.9983C162.689 100.34 166.748 101.145 170.859 101.39C172.111 101.507 173.372 101.443 174.605 101.201C174.903 101.162 175.176 101.015 175.372 100.788C175.472 100.615 175.53 100.422 175.544 100.223L175.865 97.982C175.937 97.6699 175.927 97.3447 175.837 97.0373C175.69 96.6607 175.322 96.4237 174.97 96.2224C171.541 94.2581 167.537 93.1745 164.651 90.4785C163.971 89.8438 163.403 88.8378 162.577 88.4067C161.641 87.9178 160.538 87.6388 159.571 87.1883C157.455 86.2034 155.375 85.0717 153.082 84.546Z" fill="#2F2E41"/>
<path opacity="0.1" d="M158.29 87.5672C160.133 88.1434 167.917 92.1351 169.252 93.5287C169.073 93.593 163.005 90.2016 162.823 90.1472C161.154 89.69 159.52 89.1156 157.932 88.4282C157.616 88.2824 155.878 87.5969 155.957 87.199C156.046 86.75 157.962 87.4649 158.29 87.5672Z" fill="black"/>
<path d="M181.291 102.553C181.395 102.56 181.499 102.53 181.583 102.467C181.62 102.42 181.647 102.366 181.662 102.308C181.678 102.251 181.682 102.19 181.674 102.131L181.666 99.0783C180.785 98.66 179.801 98.5259 178.834 98.3971L174.325 97.7959C174.428 97.8097 173.62 99.733 173.744 99.9898C173.962 100.442 175.632 100.843 176.104 101.057C177.742 101.8 179.445 102.617 181.291 102.553Z" fill="#A0616A"/>
<path d="M167.142 99.0675C166.291 99.2028 165.34 99.3223 164.789 99.9834C164.09 100.822 164.387 102.071 164.721 103.11C164.741 103.244 164.788 103.372 164.859 103.488C164.93 103.603 165.024 103.704 165.135 103.782C165.245 103.861 165.37 103.917 165.503 103.947C165.636 103.977 165.773 103.98 165.907 103.956C166.683 104.005 167.509 104.043 168.188 103.663C168.495 103.461 168.791 103.241 169.074 103.006C169.574 102.674 170.124 102.423 170.703 102.263C171.768 101.929 172.864 101.704 173.974 101.591C174.412 101.571 174.845 101.495 175.263 101.364C175.471 101.297 175.662 101.183 175.819 101.031C175.976 100.878 176.097 100.692 176.17 100.486C176.327 99.9311 176.004 99.3654 175.694 98.8788C175.336 98.2416 174.873 97.6698 174.322 97.1883C173.482 96.5373 173.066 97.0371 172.22 97.4536C170.618 98.2422 168.906 98.7862 167.142 99.0675Z" fill="#A0616A"/>
<path d="M164.917 99.8324L159.511 98.2387C158.862 98.0135 158.185 97.8826 157.499 97.8499C157.155 97.8359 156.813 97.8951 156.494 98.0236C156.176 98.1521 155.888 98.347 155.651 98.5951C155.232 99.0858 155.112 99.7565 155.007 100.393L154.784 101.754C154.635 102.44 154.593 103.145 154.659 103.843C154.695 104.193 154.81 104.53 154.996 104.828C155.182 105.126 155.434 105.378 155.733 105.565C156.481 105.972 157.398 105.773 158.233 105.603C159.919 105.259 161.635 105.076 163.356 105.055C164.003 105.047 164.682 105.056 165.254 104.753C165.586 104.557 165.864 104.283 166.066 103.955C166.267 103.627 166.386 103.254 166.41 102.87C166.516 101.708 166.128 100.189 164.917 99.8324Z" fill="#2F2E41"/>
<path d="M183.416 98.4437C184.117 98.3212 184.735 97.924 185.407 97.6895C186.352 97.3595 187.376 97.3595 188.378 97.3631C188.746 97.3296 189.116 97.4035 189.443 97.5759C189.884 97.8688 189.997 98.455 190.072 98.9782L190.525 102.135C190.646 102.724 190.658 103.33 190.562 103.924C190.429 104.509 190.029 105.072 189.447 105.223C188.74 105.407 188.047 104.956 187.38 104.66C185.711 103.921 183.772 104.11 182.032 103.557C181.866 103.524 181.709 103.456 181.571 103.358C181.433 103.259 181.317 103.133 181.232 102.987C181.173 102.811 181.151 102.625 181.17 102.441C181.2 101.426 180.985 100.041 181.291 99.0709C181.567 98.1987 182.633 98.4437 183.416 98.4437Z" fill="#2F2E41"/>
<path d="M194.857 83.2753C195.937 83.0052 197.057 82.9289 198.164 83.05C199.048 83.1471 199.959 83.3925 200.604 84.0028C201.39 84.7456 201.643 85.8945 201.664 86.974C201.698 89.1242 200.983 91.2196 199.641 92.9023C199.313 93.328 198.923 93.7023 198.484 94.0128C198.011 94.3082 197.506 94.5507 196.979 94.736L185.298 99.3311C182.225 100.54 179.141 101.752 175.936 102.549C175.848 102.591 175.753 102.616 175.656 102.621C175.558 102.626 175.461 102.611 175.37 102.578C175.278 102.545 175.194 102.494 175.123 102.428C175.051 102.362 174.994 102.283 174.954 102.194C173.93 100.736 173.072 99.1698 172.394 97.5235C172.362 97.4844 172.339 97.4381 172.329 97.3887C172.319 97.3392 172.32 97.2879 172.334 97.2392C172.348 97.1905 172.373 97.1459 172.408 97.109C172.442 97.0721 172.485 97.0441 172.533 97.0273L180.795 92.2928C181.401 91.9776 181.966 91.5895 182.477 91.1372C182.834 90.7921 183.126 90.3861 183.34 89.9384C183.512 89.5817 183.528 88.7398 183.746 88.4761C183.961 88.2179 184.693 88.1973 185.032 88.0957C185.509 87.95 185.976 87.7738 186.431 87.5682C188.279 86.7436 189.925 85.5455 191.697 84.58C192.69 84.0133 193.752 83.5749 194.857 83.2753Z" fill="#2F2E41"/>
<path opacity="0.1" d="M190.173 86.811C188.753 87.8743 186.915 88.8517 185.509 89.943C185.028 90.3154 177.024 94.8034 176.911 95.3994C178.224 95.62 186.584 89.7866 187.781 89.2045C188.977 88.6224 190.037 87.8016 191.088 86.9868C191.356 86.7791 192.491 86.1549 191.722 85.9229C191.289 85.7922 190.493 86.5985 190.173 86.811Z" fill="black"/>
<path d="M180.406 52.1626H167.945C167.439 52.1626 166.954 52.3632 166.596 52.7202C166.238 53.0772 166.037 53.5614 166.037 54.0663V54.7634H165.901V56.3223H166.037V57.4136H165.901V58.349H166.037V69.8521C166.037 70.357 166.238 70.8412 166.596 71.1982C166.954 71.5552 167.439 71.7557 167.945 71.7557H180.406C180.912 71.7557 181.397 71.5552 181.755 71.1982C182.113 70.8412 182.314 70.357 182.314 69.8521V54.0662C182.314 53.5614 182.113 53.0772 181.755 52.7202C181.397 52.3632 180.912 52.1626 180.406 52.1626Z" fill="#D0CDE1"/>
<path d="M182.386 37.4586L176.066 34.157L167.339 35.5077L165.533 43.4614L170.028 43.2888L171.284 40.3668V43.2408L173.358 43.1613L174.561 38.5089L175.314 43.4614L182.687 43.3112L182.386 37.4586Z" fill="#2F2E41"/>
<path d="M160.92 82.2452C161.206 82.7299 161.612 83.133 162.099 83.4156C162.419 83.5613 162.768 83.6322 163.12 83.6228C163.471 83.6134 163.816 83.524 164.127 83.3614C164.749 83.0287 165.259 82.5195 165.591 81.8981C166.278 80.6885 166.42 79.241 166.334 77.8536C166.248 76.4661 165.951 75.0999 165.82 73.7159C165.724 72.7099 165.717 71.6979 165.709 70.6874C165.685 70.475 165.73 70.2604 165.836 70.075C166.02 69.8929 166.258 69.7745 166.514 69.7376C167.9 69.3268 168.82 68.031 169.48 66.7476C169.92 65.8906 170.303 64.9538 170.218 63.9945C170.134 63.0352 169.442 62.0688 168.482 61.971C167.69 61.8903 166.958 62.392 166.387 62.9449C164.946 64.3485 164.02 66.1944 163.757 68.1862C163.632 69.1616 163.668 70.1635 163.402 71.1104C162.834 73.1322 161.057 74.3718 160.171 76.1911C159.196 78.1957 159.734 80.4715 160.92 82.2452Z" fill="#A0616A"/>
<path d="M187.07 74.521C186.868 74.9899 186.574 75.4136 186.205 75.7672C185.836 76.1209 185.4 76.3972 184.922 76.5799C184.328 76.8178 183.673 76.8578 183.054 76.6939C182.747 76.6091 182.464 76.4548 182.227 76.2431C181.99 76.0314 181.805 75.768 181.686 75.4734C181.591 75.1766 181.539 74.868 181.532 74.5566C181.443 73.1932 181.477 71.7882 181.974 70.5149C182.165 70.0237 182.424 69.5579 182.575 69.053C182.723 68.4698 182.799 67.8706 182.801 67.2688L182.964 63.5487C182.991 63.2787 182.973 63.006 182.909 62.7421C182.746 62.2038 182.242 61.854 181.779 61.533C180.661 60.7578 179.557 59.8532 179.015 58.6074C178.829 58.2323 178.762 57.8095 178.824 57.3956C178.977 56.6568 179.724 56.1786 180.463 56.0175C180.946 55.9121 181.446 55.9054 181.932 55.9977C182.418 56.0901 182.881 56.2796 183.291 56.5549C183.702 56.8302 184.053 57.1856 184.322 57.5996C184.591 58.0136 184.774 58.4777 184.858 58.964C184.931 59.3838 184.93 59.8126 184.973 60.2366C185.064 61.1359 185.35 62.0028 185.529 62.8888C185.97 65.0714 185.742 67.3274 186.178 69.5096C186.543 71.3341 187.918 72.5246 187.07 74.521Z" fill="#A0616A"/>
<path d="M174.342 60.5318C175.206 60.5318 175.906 59.8338 175.906 58.9728C175.906 58.1118 175.206 57.4138 174.342 57.4138C173.479 57.4138 172.779 58.1118 172.779 58.9728C172.779 59.8338 173.479 60.5318 174.342 60.5318Z" fill="#2356E7"/>
<path d="M4.61163 115.003C7.15829 115.003 9.22276 112.944 9.22276 110.404C9.22276 107.864 7.15829 105.805 4.61163 105.805C2.06496 105.805 0.000488281 107.864 0.000488281 110.404C0.000488281 112.944 2.06496 115.003 4.61163 115.003Z" fill="#2F2E41"/>
<path d="M21.3262 124.057L19.0036 121.805L14.3398 123.25L14.7878 128.635L24.3772 128.191L21.4313 124.199L21.3262 124.057Z" fill="#FBBEBE"/>
<path d="M16.2466 124.01C20.3638 124.01 23.7015 120.681 23.7015 116.575C23.7015 112.469 20.3638 109.14 16.2466 109.14C12.1293 109.14 8.79163 112.469 8.79163 116.575C8.79163 120.681 12.1293 124.01 16.2466 124.01Z" fill="#FBBEBE"/>
<path d="M62.5274 133.599C62.5274 133.599 71.6859 149.296 73.8655 151.653C74.9021 152.813 76.0064 153.91 77.1727 154.94C77.1727 154.94 76.1479 158.33 74.5159 158.209C73.5857 158.153 72.6735 157.929 71.8238 157.547C71.8238 157.547 71.0954 155.664 69.8249 154.838C68.5544 154.013 58.1742 143.828 58.4168 140.573C58.6594 137.317 62.5274 133.599 62.5274 133.599Z" fill="#2F2E41"/>
<path d="M29.911 156C29.911 156 39.6761 163.559 52.9471 156.456L54.0908 155.617C54.0908 155.617 52.1608 159.947 51.9817 161.121C51.774 162.482 46.7491 170.456 45.9291 170.838C45.1091 171.22 44.9284 171.573 44.9284 171.573L48.4082 175.393L49.6949 174.448C49.6949 174.448 54.7118 167.359 56.1791 166.063C57.6465 164.766 64.6376 151.392 64.6376 151.392C64.6376 151.392 67.3105 146.353 60.6397 145.974C53.969 145.595 50.8994 147.409 50.8994 147.409L39.0604 149.284L29.911 156Z" fill="#2F2E41"/>
<path d="M77.2859 154.198L82.2251 157.606C82.2251 157.606 88.5264 159.575 84.6448 160.885C80.7633 162.196 70.5346 162.67 70.3025 160.862C70.0705 159.054 70.706 156.208 71.2163 156.364C71.7266 156.52 75.2684 157.437 77.2859 154.198Z" fill="#2F2E41"/>
<path d="M50.1319 173.278L51.046 178.284C51.046 178.284 53.6455 183.242 50.5244 181.704C47.4033 180.166 40.973 174.322 41.9226 173.097C42.8721 171.872 44.9679 170.543 45.1807 170.942C45.3935 171.342 46.9687 174.015 50.1319 173.278Z" fill="#2F2E41"/>
<path d="M40.7139 150.928C40.7139 150.928 34.0759 158.658 30.0458 156.78C26.0157 154.902 9.52799 133.155 11.4106 129.136C13.2932 125.117 13.9245 125.972 13.9245 125.972L22.4376 126.757L19.9882 122.841C19.9882 122.841 21.1318 122.001 22.2217 123.179C23.3115 124.358 27.6869 127.301 29.2111 131.457C30.7354 135.613 35.2104 135.406 35.2104 135.406L40.7139 150.928Z" fill="white"/>
<path d="M67.5204 134.99L56.0137 147.172L45.7058 129.022L55.5051 117.214L67.5204 134.99Z" fill="#3F3D56"/>
<path d="M66.6518 134.858L56.259 145.563L46.8414 129.067L55.4782 118.223L66.6518 134.858Z" fill="white"/>
<path d="M55.4499 146.707L56.0137 147.172L55.6521 147.877L39.5622 152.653L39.41 152.103L40.142 151.348L55.4499 146.707Z" fill="#B3B3B3"/>
<path d="M56.1566 147.067L39.4949 152.263L29.3381 133.122L45.7058 129.021L56.1566 147.067Z" fill="#D0CDE1"/>
<path d="M54.9022 144.471L54.1873 144.995L46.2537 131.257L47.0736 130.875L54.9022 144.471Z" fill="#3F3D56"/>
<path d="M53.262 145.235L46.2138 147.331L38.2126 133.202L45.1855 131.602L53.262 145.235Z" fill="#3F3D56"/>
<path d="M33.4059 134.752L34.8652 134.341C34.8652 134.341 43.0033 133.423 43.1221 135.973C43.2409 138.524 33.7729 137.34 33.7729 137.34L32.5104 135.629L33.4059 134.752Z" fill="#FBBEBE"/>
<path d="M40.5438 146.218L42.5749 145.386C42.5749 145.386 48.7061 142.645 46.9473 140.859C45.1884 139.072 39.7641 142.174 39.7641 142.174L38.7256 143.156L40.5438 146.218Z" fill="#FBBEBE"/>
<path d="M38.7336 142.271C38.7336 142.271 42.0408 145.558 41.2883 146.33C40.5357 147.103 28.1954 157.259 25.1364 154.009C22.0773 150.76 7.17322 134.444 12.9726 133.045C18.7721 131.646 20.3044 134.917 20.3044 134.917L27.9603 147.98L38.7336 142.271Z" fill="white"/>
<path d="M28.8309 132.285L34.2635 134.123L34.1748 138.034L28.4292 137.416L28.8309 132.285Z" fill="white"/>
<path opacity="0.2" d="M33.7273 144.297L27.8741 147.714L21.1866 137.457L27.642 145.906L33.7273 144.297Z" fill="black"/>
<path d="M12.9744 123.271C17.8759 123.271 21.8494 119.308 21.8494 114.42C21.8494 109.532 17.8759 105.569 12.9744 105.569C8.07293 105.569 4.09949 109.532 4.09949 114.42C4.09949 119.308 8.07293 123.271 12.9744 123.271Z" fill="#2F2E41"/>
<path d="M60.9277 135.763L54.7135 126.696L57.3477 123.444L63.8048 132.772L60.9277 135.763Z" fill="#2356E7"/>
<path d="M60.7525 139.408L51.292 125.691L51.7586 125.129L61.1749 138.878L60.7525 139.408Z" fill="#E6E6E6"/>
<path d="M59.5335 140.742L50.073 127.025L50.5396 126.463L59.9559 140.212L59.5335 140.742Z" fill="#E6E6E6"/>
<path d="M58.495 141.724L49.0344 128.007L49.501 127.445L58.9173 141.194L58.495 141.724Z" fill="#E6E6E6"/>
<path d="M16.9045 108.511H19.65C21.0401 108.511 22.3732 109.061 23.3562 110.042C24.3391 111.022 24.8913 112.352 24.8913 113.738H16.9045V108.511Z" fill="#2F2E41"/>
<path d="M54.7228 105.184L54.2251 105.147C54.2058 105.405 54.192 105.665 54.1756 105.924L51.9415 105.849L54.2849 110.229L56.9168 106.015L54.6746 105.941C54.6906 105.688 54.704 105.436 54.7228 105.184Z" fill="#3F3D56"/>
<path d="M67.8262 69.4851L68.223 69.7873C68.8182 69.0098 69.4398 68.2336 70.0708 67.4803L69.6876 67.1611C69.052 67.92 68.4258 68.7019 67.8262 69.4851Z" fill="#3F3D56"/>
<path d="M71.6499 64.9213L72.0184 65.257C72.6807 64.5337 73.3682 63.8154 74.0618 63.1218L73.7084 62.7703C73.0096 63.4689 72.317 64.1927 71.6499 64.9213Z" fill="#3F3D56"/>
<path d="M75.8594 60.7118L76.1969 61.0786C76.9212 60.4154 77.669 59.7603 78.4195 59.1314L78.0984 58.7502C77.3424 59.3837 76.589 60.0438 75.8594 60.7118Z" fill="#3F3D56"/>
<path d="M64.4191 74.369L64.841 74.6349C65.3656 73.8071 65.9166 72.979 66.4784 72.1736L66.0687 71.8892C65.5026 72.7007 64.9476 73.535 64.4191 74.369Z" fill="#3F3D56"/>
<path d="M80.4214 56.8889L80.7253 57.2836C81.5053 56.6864 82.3077 56.0996 83.1102 55.5395L82.824 55.1316C82.0154 55.6959 81.2071 56.2871 80.4214 56.8889Z" fill="#3F3D56"/>
<path d="M61.4572 79.5364L61.901 79.7639C62.3507 78.8917 62.8262 78.0178 63.3143 77.1666L62.8809 76.9194C62.3892 77.777 61.9101 78.6575 61.4572 79.5364Z" fill="#3F3D56"/>
<path d="M56.6424 93.5491L56.159 93.425C55.9124 94.3803 55.684 95.3543 55.4802 96.3203L55.9687 96.4229C56.171 95.4642 56.3976 94.4972 56.6424 93.5491Z" fill="#3F3D56"/>
<path d="M85.3013 53.4823L85.5691 53.9024C86.3965 53.3773 87.2471 52.8636 88.0975 52.3753L87.8484 51.9438C86.9917 52.4359 86.1347 52.9534 85.3013 53.4823Z" fill="#3F3D56"/>
<path d="M55.4238 99.3236L54.9312 99.2429C54.7709 100.215 54.6302 101.205 54.5128 102.186L55.0086 102.245C55.125 101.271 55.2647 100.288 55.4238 99.3236Z" fill="#3F3D56"/>
<path d="M58.9655 84.9481L59.4278 85.1355C59.7979 84.227 60.1939 83.3139 60.6046 82.4219L60.151 82.2141C59.7371 83.1129 59.3382 84.0327 58.9655 84.9481Z" fill="#3F3D56"/>
<path d="M56.9662 90.5631L57.4437 90.7085C57.7315 89.7691 58.0444 88.824 58.3735 87.8994L57.9031 87.7329C57.5715 88.6643 57.2562 89.6166 56.9662 90.5631Z" fill="#3F3D56"/>
<path d="M119.068 43.5595C120.046 43.5257 121.043 43.5122 122.029 43.5214L122.033 43.0236C121.04 43.0143 120.036 43.0278 119.051 43.0619L119.068 43.5595Z" fill="#3F3D56"/>
<path d="M90.4607 50.5197L90.6903 50.9616C91.562 50.5112 92.4543 50.0747 93.3428 49.6643L93.1329 49.2126C92.2379 49.6261 91.3389 50.0659 90.4607 50.5197Z" fill="#3F3D56"/>
<path d="M130.88 44.1802C131.853 44.3177 132.836 44.4786 133.8 44.6586L133.892 44.1693C132.921 43.9879 131.931 43.8257 130.949 43.6873L130.88 44.1802Z" fill="#3F3D56"/>
<path d="M136.698 45.266C137.653 45.4886 138.618 45.7361 139.564 46.0014L139.699 45.522C138.746 45.2548 137.774 45.0056 136.811 44.7812L136.698 45.266Z" fill="#3F3D56"/>
<path d="M142.395 46.8634C143.327 47.1701 144.265 47.5021 145.184 47.8505L145.362 47.3852C144.436 47.0342 143.49 46.6996 142.551 46.3906L142.395 46.8634Z" fill="#3F3D56"/>
<path d="M124.988 43.6119C125.971 43.6633 126.964 43.7372 127.94 43.8312L127.988 43.3358C127.005 43.2409 126.004 43.1665 125.014 43.1147L124.988 43.6119Z" fill="#3F3D56"/>
<path d="M113.108 43.5276L113.169 44.0218C114.142 43.9025 115.133 43.8029 116.113 43.7261L116.074 43.2297C115.086 43.3072 114.088 43.4074 113.108 43.5276Z" fill="#3F3D56"/>
<path d="M101.463 46.0184L101.611 46.4939C102.549 46.2043 103.506 45.9318 104.456 45.6839L104.33 45.2024C103.373 45.4519 102.408 45.7265 101.463 46.0184Z" fill="#3F3D56"/>
<path d="M95.8596 48.0256L96.0491 48.4863C96.9567 48.1149 97.8837 47.7593 98.8046 47.4294L98.6359 46.9609C97.708 47.2932 96.774 47.6515 95.8596 48.0256Z" fill="#3F3D56"/>
<path d="M107.23 44.5143L107.335 45.0012C108.294 44.7962 109.272 44.6096 110.241 44.4468L110.158 43.9558C109.182 44.1199 108.197 44.3078 107.23 44.5143Z" fill="#3F3D56"/>
<path d="M152.632 50.9285L149.843 46.8171L148.862 48.8307C148.625 48.725 148.389 48.617 148.151 48.5146L147.953 48.9715C148.185 49.0715 148.414 49.1763 148.644 49.2788L147.668 51.2828L152.632 50.9285Z" fill="#3F3D56"/>
</svg>
