<svg width="161" height="46" viewBox="0 0 161 46" fill="none" xmlns="http://www.w3.org/2000/svg">
<path d="M154.574 46H6.42593C3.16815 46 0.5 43.4111 0.5 40.25V5.74999C0.5 2.58893 3.16815 -7.01726e-06 6.42593 -7.01726e-06H154.574C157.832 -7.01726e-06 160.5 2.58893 160.5 5.74999V40.25C160.5 43.4111 157.832 46 154.574 46Z" fill="white"/>
<path d="M154.574 0.921428C157.318 0.921428 159.55 3.08774 159.55 5.74999V40.25C159.55 42.9122 157.318 45.0786 154.574 45.0786H6.42593C3.68222 45.0786 1.44963 42.9122 1.44963 40.25V5.74999C1.44963 3.08774 3.68222 0.921428 6.42593 0.921428H154.574ZM154.574 -7.01726e-06H6.42593C3.16815 -7.01726e-06 0.5 2.58893 0.5 5.74999V40.25C0.5 43.4111 3.16815 46 6.42593 46H154.574C157.832 46 160.5 43.4111 160.5 40.25V5.74999C160.5 2.58893 157.832 -7.01726e-06 154.574 -7.01726e-06Z" fill="#A6A6A6"/>
<path d="M12.8673 8.66944C12.5191 9.02306 12.3176 9.57363 12.3176 10.2866V35.7189C12.3176 36.4319 12.5191 36.9824 12.8673 37.3361L12.9532 37.4137L27.6406 23.1681V22.8317L12.9532 8.58607L12.8673 8.66944Z" fill="url(#paint0_linear_85_465)"/>
<path d="M32.5309 27.9189L27.6405 23.168V22.8316L32.5368 18.0807L32.6464 18.1425L38.4449 21.3438C40.0998 22.2523 40.0998 23.7473 38.4449 24.6616L32.6464 27.8571L32.5309 27.9189Z" fill="url(#paint1_linear_85_465)"/>
<path d="M32.6466 27.8572L27.6406 22.9999L12.8673 37.3361C13.4169 37.8967 14.3132 37.9643 15.3325 37.4037L32.6466 27.8572Z" fill="url(#paint2_linear_85_465)"/>
<path d="M32.6466 18.1426L15.3325 8.59613C14.3132 8.04125 13.4169 8.10882 12.8673 8.66944L27.6406 22.9999L32.6466 18.1426Z" fill="url(#paint3_linear_85_465)"/>
<path d="M56.6984 11.7805C56.6984 12.7407 56.4021 13.5098 55.8184 14.0833C55.1473 14.7633 54.2732 15.1054 53.2021 15.1054C52.1784 15.1054 51.3043 14.7575 50.5873 14.0718C49.8688 13.3761 49.5103 12.5222 49.5103 11.5001C49.5103 10.4781 49.8688 9.62421 50.5873 8.93421C51.3043 8.24277 52.1784 7.8949 53.2021 7.8949C53.7117 7.8949 54.1977 7.99696 54.6614 8.18671C55.1236 8.3779 55.4999 8.63665 55.7725 8.95577L55.1532 9.5624C54.6777 9.01759 54.0303 8.74877 53.2021 8.74877C52.4554 8.74877 51.808 9.00177 51.2584 9.51209C50.7147 10.0238 50.4421 10.6865 50.4421 11.5001C50.4421 12.3138 50.7147 12.9822 51.2584 13.494C51.808 13.9985 52.4554 14.2573 53.2021 14.2573C53.9947 14.2573 54.6614 13.9985 55.1873 13.4882C55.534 13.1504 55.731 12.6846 55.7828 12.0895H53.2021V11.2586H56.6451C56.6865 11.4383 56.6984 11.6123 56.6984 11.7805Z" fill="black" stroke="black" stroke-width="0.126802" stroke-miterlimit="10"/>
<path d="M62.1605 8.89967H58.9264V11.0847H61.842V11.9155H58.9264V14.1005H62.1605V14.9472H58.0109V8.05298H62.1605V8.89967Z" fill="black" stroke="black" stroke-width="0.126802" stroke-miterlimit="10"/>
<path d="M66.0155 14.9472H65.0999V8.89967H63.1162V8.05298H68.0007V8.89967H66.0155V14.9472Z" fill="black" stroke="black" stroke-width="0.126802" stroke-miterlimit="10"/>
<path d="M71.5354 14.9472V8.05298H72.4495V14.9472H71.5354Z" fill="black" stroke="black" stroke-width="0.126802" stroke-miterlimit="10"/>
<path d="M76.5013 14.9472H75.5932V8.89967H73.6021V8.05298H78.4924V8.89967H76.5013V14.9472Z" fill="black" stroke="black" stroke-width="0.126802" stroke-miterlimit="10"/>
<path d="M87.7399 14.0603C87.0391 14.7575 86.171 15.1054 85.1354 15.1054C84.094 15.1054 83.2258 14.7575 82.5251 14.0603C81.8258 13.3646 81.4777 12.5107 81.4777 11.5001C81.4777 10.4896 81.8258 9.63571 82.5251 8.93996C83.2258 8.24277 84.094 7.8949 85.1354 7.8949C86.1651 7.8949 87.0332 8.24277 87.734 8.94571C88.4391 9.64721 88.7873 10.4953 88.7873 11.5001C88.7873 12.5107 88.4391 13.3646 87.7399 14.0603ZM83.2021 13.4825C83.7295 13.9985 84.371 14.2573 85.1354 14.2573C85.894 14.2573 86.5414 13.9985 87.0628 13.4825C87.5888 12.9664 87.8554 12.3037 87.8554 11.5001C87.8554 10.6966 87.5888 10.0339 87.0628 9.51784C86.5414 9.00177 85.894 8.74302 85.1354 8.74302C84.371 8.74302 83.7295 9.00177 83.2021 9.51784C82.6762 10.0339 82.4095 10.6966 82.4095 11.5001C82.4095 12.3037 82.6762 12.9664 83.2021 13.4825Z" fill="black" stroke="black" stroke-width="0.126802" stroke-miterlimit="10"/>
<path d="M90.0717 14.9472V8.05298H91.1828L94.6376 13.4149H94.6776L94.6376 12.0895V8.05298H95.5517V14.9472H94.5976L90.9798 9.32085H90.9398L90.9798 10.652V14.9472H90.0717Z" fill="black" stroke="black" stroke-width="0.126802" stroke-miterlimit="10"/>
<path d="M81.2525 25.0153C78.4688 25.0153 76.1947 27.071 76.1947 29.9072C76.1947 32.7203 78.4688 34.7975 81.2525 34.7975C84.0421 34.7975 86.3162 32.7203 86.3162 29.9072C86.3162 27.071 84.0421 25.0153 81.2525 25.0153ZM81.2525 32.8713C79.7251 32.8713 78.411 31.648 78.411 29.9072C78.411 28.1433 79.7251 26.9416 81.2525 26.9416C82.7799 26.9416 84.0999 28.1433 84.0999 29.9072C84.0999 31.648 82.7799 32.8713 81.2525 32.8713ZM70.2169 25.0153C67.4273 25.0153 65.1591 27.071 65.1591 29.9072C65.1591 32.7203 67.4273 34.7975 70.2169 34.7975C73.0051 34.7975 75.2747 32.7203 75.2747 29.9072C75.2747 27.071 73.0051 25.0153 70.2169 25.0153ZM70.2169 32.8713C68.688 32.8713 67.3695 31.648 67.3695 29.9072C67.3695 28.1433 68.688 26.9416 70.2169 26.9416C71.7443 26.9416 73.0584 28.1433 73.0584 29.9072C73.0584 31.648 71.7443 32.8713 70.2169 32.8713ZM57.0851 26.5147V28.5933H62.2006C62.051 29.7548 61.651 30.6087 61.0377 31.2038C60.291 31.9225 59.128 32.7203 57.0851 32.7203C53.9369 32.7203 51.4717 30.255 51.4717 27.2003C51.4717 24.1457 53.9369 21.6803 57.0851 21.6803C58.7873 21.6803 60.0258 22.3258 60.9399 23.1624L62.4495 21.6976C61.171 20.5131 59.4703 19.6032 57.0851 19.6032C52.768 19.6032 49.1399 23.0115 49.1399 27.2003C49.1399 31.3892 52.768 34.7975 57.0851 34.7975C59.4184 34.7975 61.171 34.0558 62.5488 32.6643C63.9606 31.2943 64.4006 29.3681 64.4006 27.8127C64.4006 27.3297 64.3591 26.8855 64.2851 26.5147H57.0851ZM110.783 28.1261C110.367 27.0322 109.082 25.0153 106.466 25.0153C103.873 25.0153 101.715 26.9977 101.715 29.9072C101.715 32.647 103.851 34.7975 106.715 34.7975C109.03 34.7975 110.367 33.4276 110.916 32.6298L109.198 31.5186C108.624 32.3322 107.844 32.8713 106.715 32.8713C105.593 32.8713 104.789 32.3725 104.273 31.3892L111.015 28.6824L110.783 28.1261ZM103.909 29.7548C103.851 27.8688 105.418 26.9028 106.541 26.9028C107.421 26.9028 108.168 27.3297 108.417 27.9407L103.909 29.7548ZM98.4288 34.5H100.645V20.125H98.4288V34.5ZM94.7991 26.105H94.7251C94.2273 25.5328 93.2777 25.0153 92.0747 25.0153C89.5503 25.0153 87.2421 27.1658 87.2421 29.923C87.2421 32.6643 89.5503 34.7975 92.0747 34.7975C93.2777 34.7975 94.2273 34.2757 94.7251 33.6863H94.7991V34.3878C94.7991 36.258 93.7695 37.2628 92.1088 37.2628C90.7547 37.2628 89.9147 36.3141 89.568 35.5163L87.6406 36.2968C88.1962 37.5935 89.6673 39.1891 92.1088 39.1891C94.7073 39.1891 96.8999 37.7056 96.8999 34.096V25.3129H94.7991V26.105ZM92.2643 32.8713C90.7369 32.8713 89.4584 31.6307 89.4584 29.923C89.4584 28.1994 90.7369 26.9416 92.2643 26.9416C93.7695 26.9416 94.9562 28.1994 94.9562 29.923C94.9562 31.6307 93.7695 32.8713 92.2643 32.8713ZM121.159 20.125H115.858V34.5H118.069V29.0533H121.159C123.614 29.0533 126.021 27.3297 126.021 24.5884C126.021 21.8485 123.608 20.125 121.159 20.125ZM121.217 27.0537H118.069V22.1245H121.217C122.867 22.1245 123.81 23.4542 123.81 24.5884C123.81 25.701 122.867 27.0537 121.217 27.0537ZM134.881 24.988C133.284 24.988 131.623 25.6723 130.94 27.1888L132.901 27.9867C133.324 27.1888 134.1 26.9301 134.921 26.9301C136.067 26.9301 137.23 27.5985 137.248 28.7787V28.9297C136.848 28.7054 135.992 28.3733 134.938 28.3733C132.826 28.3733 130.673 29.5018 130.673 31.6077C130.673 33.534 132.404 34.7745 134.349 34.7745C135.836 34.7745 136.657 34.1233 137.172 33.3658H137.248V34.477H139.383V28.9627C139.383 26.414 137.421 24.988 134.881 24.988ZM134.614 32.8655C133.891 32.8655 132.884 32.5177 132.884 31.648C132.884 30.5353 134.14 30.1084 135.227 30.1084C136.201 30.1084 136.657 30.3168 137.248 30.5914C137.075 31.9225 135.894 32.8655 134.614 32.8655ZM147.161 25.3028L144.62 31.5344H144.544L141.918 25.3028H139.534L143.481 34.0112L141.229 38.857H143.538L149.62 25.3028H147.161ZM127.236 34.5H129.452V20.125H127.236V34.5Z" fill="black"/>
<defs>
<linearGradient id="paint0_linear_85_465" x1="26.3365" y1="35.9837" x2="7.04552" y2="16.1025" gradientUnits="userSpaceOnUse">
<stop stop-color="#00A0FF"/>
<stop offset="0.0066" stop-color="#00A1FF"/>
<stop offset="0.2601" stop-color="#00BEFF"/>
<stop offset="0.5122" stop-color="#00D2FF"/>
<stop offset="0.7604" stop-color="#00DFFF"/>
<stop offset="1" stop-color="#00E3FF"/>
</linearGradient>
<linearGradient id="paint1_linear_85_465" x1="40.5998" y1="22.9982" x2="11.922" y2="22.9982" gradientUnits="userSpaceOnUse">
<stop stop-color="#FFE000"/>
<stop offset="0.4087" stop-color="#FFBD00"/>
<stop offset="0.7754" stop-color="#FFA500"/>
<stop offset="1" stop-color="#FF9C00"/>
</linearGradient>
<linearGradient id="paint2_linear_85_465" x1="29.9245" y1="20.3594" x2="3.76433" y2="-6.60115" gradientUnits="userSpaceOnUse">
<stop stop-color="#FF3A44"/>
<stop offset="1" stop-color="#C31162"/>
</linearGradient>
<linearGradient id="paint3_linear_85_465" x1="9.14856" y1="45.7973" x2="20.8302" y2="33.7583" gradientUnits="userSpaceOnUse">
<stop stop-color="#32A071"/>
<stop offset="0.0685" stop-color="#2DA771"/>
<stop offset="0.4762" stop-color="#15CF74"/>
<stop offset="0.8009" stop-color="#06E775"/>
<stop offset="1" stop-color="#00F076"/>
</linearGradient>
</defs>
</svg>
