<svg width="136" height="30" viewBox="0 0 136 30" fill="none" xmlns="http://www.w3.org/2000/svg">
<path d="M16.9878 13.7123C17.2573 13.5062 17.3999 13.2368 17.3999 12.9039C17.3999 12.2303 16.8848 11.8975 15.8625 11.8975H13.5959V14.0214H15.8625C16.338 14.0214 16.7184 13.9183 16.9878 13.7123Z" fill="white"/>
<path d="M16.2507 15.6938H13.5879V17.7543H16.1952C16.6786 17.7543 17.0511 17.6513 17.3206 17.4532C17.59 17.2551 17.7247 16.9856 17.7247 16.6607C17.7247 16.0188 17.2334 15.6938 16.2507 15.6938Z" fill="white"/>
<path d="M29.4856 12.1985L18.4461 1.15903C16.9008 -0.386343 14.3885 -0.386343 12.8432 1.15903L1.79575 12.1985C0.250376 13.7439 0.250376 16.2561 1.79575 17.8015L12.8352 28.841C14.3806 30.3863 16.8928 30.3863 18.4382 28.841L29.4856 17.8094C31.031 16.2561 31.031 13.7518 29.4856 12.1985ZM18.7552 18.7604C18.2876 19.117 17.6933 19.3389 16.98 19.4182V20.9794H15.6328V19.4578H14.2855V20.9794H12.9383V19.4578H11.6227V10.1856H12.9383V9.02061H14.2855V10.1856H15.6328V9.02061H16.98V10.249C17.5585 10.3441 18.042 10.5343 18.4223 10.8354C18.9771 11.2634 19.2545 11.8657 19.2545 12.6265C19.2545 13.094 19.1356 13.5061 18.8979 13.8786C18.6601 14.2511 18.351 14.5126 17.9548 14.6553C18.5016 14.7662 18.9216 15.0198 19.2148 15.4319C19.5081 15.844 19.6586 16.3354 19.6586 16.906C19.6666 17.6826 19.3575 18.3008 18.7552 18.7604Z" fill="white"/>
<path d="M45.4069 11.1684C47.079 11.1684 48.5214 11.7232 49.7181 12.8327C50.9227 13.9422 51.525 15.3211 51.525 16.9695C51.525 18.6179 50.9227 19.9968 49.7181 21.1063C48.5135 22.2 47.079 22.7468 45.4069 22.7468C44.2023 22.7468 43.1324 22.4932 42.1973 21.9781V22.4536H37.3551V6.49268H42.1973V11.9371C43.1324 11.4299 44.2023 11.1684 45.4069 11.1684ZM44.2815 19.3628C45.0027 19.3628 45.6129 19.133 46.1122 18.6734C46.6115 18.2137 46.8651 17.651 46.8651 16.9774C46.8651 16.2879 46.6194 15.7173 46.1281 15.2656C45.6367 14.8139 45.0186 14.592 44.2815 14.592C43.5128 14.592 42.8154 14.8298 42.1973 15.3132V18.6179C42.7996 19.1092 43.489 19.3628 44.2815 19.3628Z" fill="white"/>
<path d="M56.0027 9.36918C55.4638 9.82091 54.814 10.0428 54.0452 10.0428C53.2765 10.0428 52.6267 9.82091 52.0878 9.36918C51.5489 8.88576 51.2874 8.32309 51.2874 7.65739C51.2874 6.98377 51.5568 6.42109 52.0878 5.96937C52.6029 5.5018 53.2607 5.27197 54.0452 5.27197C54.8298 5.27197 55.4797 5.5018 56.0027 5.96937C56.5416 6.42109 56.8031 6.98377 56.8031 7.65739C56.8031 8.32309 56.5337 8.89369 56.0027 9.36918ZM56.4782 11.398V22.4692H51.6123V11.398H56.4782Z" fill="white"/>
<path d="M78.8424 20.2816H72.2964L71.4167 22.461H66.0198L73.0968 7.07861H78.042L85.119 22.4689H79.7538L78.8424 20.2816ZM77.3366 16.5965L75.5535 12.2536L73.7942 16.5965H77.3366Z" fill="white"/>
<path d="M89.2321 11.398H93.2183V15.1307H89.2321V22.4613H84.3899V15.1307H81.7826V11.398H84.3899V10.3598C84.3899 8.64804 84.913 7.31664 85.967 6.35772C87.0527 5.38295 88.4079 4.8916 90.0325 4.8916C91.0865 4.8916 92.2911 5.05803 93.6463 5.38295L93.0202 8.86994C92.3545 8.73522 91.6888 8.66389 91.039 8.66389C90.5001 8.66389 90.0721 8.80654 89.7313 9.08392C89.3985 9.36129 89.2321 9.73376 89.2321 10.2013V11.398Z" fill="white"/>
<path d="M102.086 11.3823V15.2656C100.279 15.2973 98.8687 15.7569 97.9177 16.4781V22.4614H93.0756V11.3982H97.9177V12.5235C99.0906 11.6518 100.501 11.3823 102.086 11.3823Z" fill="white"/>
<path d="M107.269 9.36918C106.73 9.82091 106.081 10.0428 105.312 10.0428C104.543 10.0428 103.893 9.82091 103.354 9.36918C102.815 8.88576 102.554 8.32309 102.554 7.65739C102.554 6.98377 102.823 6.42109 103.354 5.96937C103.869 5.5018 104.527 5.27197 105.312 5.27197C106.096 5.27197 106.746 5.5018 107.269 5.96937C107.808 6.42109 108.07 6.98377 108.07 7.65739C108.07 8.32309 107.808 8.89369 107.269 9.36918ZM107.745 11.398V22.4692H102.879V11.398H107.745Z" fill="white"/>
<path d="M115.258 19.0696L113.879 20.4169V22.4615H109.037V6.49268H113.879V14.909L117.516 11.3982H123.064L118.523 15.8521L123.262 22.4694H117.77L115.258 19.0696Z" fill="white"/>
<path d="M135.363 11.3984V22.4696H130.497V21.899C129.562 22.4062 128.5 22.6677 127.312 22.6677C125.639 22.6677 124.197 22.1209 123 21.0273C121.796 19.9178 121.193 18.5388 121.193 16.8904C121.193 15.242 121.796 13.8631 123 12.7536C124.205 11.6441 125.639 11.0894 127.312 11.0894C128.5 11.0894 129.562 11.343 130.497 11.8581V11.4064H135.363V11.3984ZM128.413 19.2679C129.229 19.2679 129.927 19.0223 130.497 18.523V15.2183C129.911 14.7348 129.221 14.4971 128.413 14.4971C127.692 14.4971 127.09 14.719 126.59 15.1628C126.099 15.6066 125.853 16.1772 125.853 16.8825C125.853 17.5561 126.099 18.1267 126.59 18.5785C127.09 19.046 127.692 19.2679 128.413 19.2679Z" fill="white"/>
<path d="M63.3171 14.8213H58.5304V22.4213H63.3171V14.8213Z" fill="white"/>
<path d="M63.3172 14.8213H63.3886V14.7024H67.2797V11.3977H63.3886V8.25146H58.5226V11.3977H56.3433V14.7024H58.5226V16.8501C58.5226 18.2449 58.9823 19.3623 59.9016 20.2182C60.7733 21.0265 61.9145 21.4466 63.3172 21.4862V14.8213Z" fill="white"/>
<path d="M67.272 11.3979H71.1077L69.5544 14.774L67.272 14.7027V11.3979Z" fill="white"/>
<path d="M81.7745 15.1308H81.1643L79.8091 11.3823H81.7745V15.1308Z" fill="white"/>
<path d="M110.297 19.355H104.369V22.4219H110.297V19.355Z" fill="white"/>
</svg>
