<svg width="167" height="37" viewBox="0 0 167 37" fill="none" xmlns="http://www.w3.org/2000/svg">
<path d="M20.1667 16.9116C20.499 16.6575 20.675 16.3252 20.675 15.9147C20.675 15.0839 20.0397 14.6733 18.7788 14.6733H15.9834V17.2928H18.7788C19.3652 17.2928 19.8344 17.1657 20.1667 16.9116Z" fill="#2356E7"/>
<path d="M19.2577 19.3552H15.9736V21.8965H19.1893C19.7855 21.8965 20.2449 21.7694 20.5773 21.5251C20.9096 21.2807 21.0757 20.9484 21.0757 20.5477C21.0757 19.756 20.4697 19.3552 19.2577 19.3552Z" fill="#2356E7"/>
<path d="M35.5803 15.0448L21.9649 1.42947C20.059 -0.476489 16.9606 -0.476489 15.0546 1.42947L1.42947 15.0448C-0.476489 16.9508 -0.476489 20.0492 1.42947 21.9552L15.0448 35.5705C16.9508 37.4765 20.0492 37.4765 21.9552 35.5705L35.5803 21.9649C37.4863 20.0492 37.4863 16.9606 35.5803 15.0448ZM22.3461 23.1378C21.7695 23.5777 21.0364 23.8513 20.1567 23.9491V25.8746H18.4951V23.998H16.8335V25.8746H15.1719V23.998H13.5494V12.5622H15.1719V11.1254H16.8335V12.5622H18.4951V11.1254H20.1567V12.6404C20.8702 12.7577 21.4665 12.9923 21.9356 13.3637C22.6198 13.8915 22.9619 14.6343 22.9619 15.5726C22.9619 16.1493 22.8153 16.6576 22.5221 17.117C22.2288 17.5763 21.8476 17.8989 21.3589 18.0748C22.0334 18.2117 22.5514 18.5244 22.913 19.0327C23.2747 19.5409 23.4604 20.1469 23.4604 20.8507C23.4701 21.8085 23.089 22.5709 22.3461 23.1378Z" fill="#2356E7"/>
<path d="M55.2167 13.7743C57.279 13.7743 59.0579 14.4585 60.5338 15.8269C62.0195 17.1953 62.7623 18.896 62.7623 20.929C62.7623 22.962 62.0195 24.6627 60.5338 26.0311C59.0481 27.3799 57.279 28.0544 55.2167 28.0544C53.731 28.0544 52.4115 27.7416 51.2581 27.1063V27.6927H45.2861V8.0076H51.2581V14.7224C52.4115 14.0969 53.731 13.7743 55.2167 13.7743ZM53.8287 23.8808C54.7182 23.8808 55.4708 23.5973 56.0866 23.0304C56.7023 22.4635 57.0151 21.7696 57.0151 20.9388C57.0151 20.0884 56.7121 19.3847 56.1061 18.8276C55.5001 18.2704 54.7377 17.9968 53.8287 17.9968C52.8806 17.9968 52.0205 18.29 51.2581 18.8862V22.962C52.001 23.568 52.8513 23.8808 53.8287 23.8808Z" fill="#2356E7"/>
<path d="M68.2844 11.5555C67.6197 12.1127 66.8182 12.3864 65.8701 12.3864C64.9221 12.3864 64.1206 12.1127 63.4559 11.5555C62.7913 10.9593 62.4688 10.2654 62.4688 9.44433C62.4688 8.61353 62.8011 7.91957 63.4559 7.36244C64.0913 6.78577 64.9025 6.50232 65.8701 6.50232C66.8378 6.50232 67.6393 6.78577 68.2844 7.36244C68.949 7.91957 69.2716 8.61353 69.2716 9.44433C69.2716 10.2654 68.9392 10.9691 68.2844 11.5555ZM68.8708 14.0577V27.7122H62.8695V14.0577H68.8708Z" fill="#2356E7"/>
<path d="M96.4532 25.0145H88.3798L87.2949 27.7024H80.6387L89.367 8.73083H95.466L104.194 27.7122H97.5773L96.4532 25.0145ZM94.5961 20.4696L92.397 15.1133L90.2271 20.4696H94.5961Z" fill="#2356E7"/>
<path d="M109.268 14.0578H114.184V18.6614H109.268V27.7025H103.296V18.6614H100.08V14.0578H103.296V12.7774C103.296 10.6661 103.941 9.02409 105.241 7.84142C106.58 6.6392 108.251 6.0332 110.255 6.0332C111.555 6.0332 113.04 6.23846 114.712 6.6392L113.94 10.9398C113.119 10.7737 112.298 10.6857 111.496 10.6857C110.832 10.6857 110.304 10.8616 109.883 11.2037C109.473 11.5458 109.268 12.0052 109.268 12.5819V14.0578Z" fill="#2356E7"/>
<path d="M125.121 14.0382V18.8275C122.892 18.8666 121.153 19.4335 119.98 20.323V27.7025H114.008V14.0578H119.98V15.4457C121.426 14.3705 123.166 14.0382 125.121 14.0382Z" fill="#2356E7"/>
<path d="M131.514 11.5555C130.849 12.1127 130.048 12.3864 129.1 12.3864C128.152 12.3864 127.35 12.1127 126.685 11.5555C126.021 10.9593 125.698 10.2654 125.698 9.44433C125.698 8.61353 126.031 7.91957 126.685 7.36244C127.321 6.78577 128.132 6.50232 129.1 6.50232C130.067 6.50232 130.869 6.78577 131.514 7.36244C132.178 7.91957 132.501 8.61353 132.501 9.44433C132.501 10.2654 132.178 10.9691 131.514 11.5555ZM132.1 14.0577V27.7122H126.099V14.0577H132.1Z" fill="#2356E7"/>
<path d="M141.366 23.5192L139.665 25.1808V27.7025H133.693V8.0076H139.665V18.3877L144.152 14.0578H150.994L145.393 19.5509L151.238 27.7123H144.464L141.366 23.5192Z" fill="#2356E7"/>
<path d="M166.163 14.0578V27.7123H160.161V27.0086C159.008 27.6341 157.698 27.9567 156.232 27.9567C154.17 27.9567 152.391 27.2822 150.915 25.9334C149.429 24.565 148.687 22.8643 148.687 20.8313C148.687 18.7983 149.429 17.0976 150.915 15.7292C152.401 14.3608 154.17 13.6766 156.232 13.6766C157.698 13.6766 159.008 13.9894 160.161 14.6247V14.0676H166.163V14.0578ZM157.591 23.7635C158.597 23.7635 159.458 23.4605 160.161 22.8448V18.769C159.438 18.1727 158.588 17.8795 157.591 17.8795C156.701 17.8795 155.958 18.1532 155.343 18.7005C154.737 19.2479 154.434 19.9516 154.434 20.8215C154.434 21.6523 154.737 22.3561 155.343 22.9132C155.958 23.4899 156.701 23.7635 157.591 23.7635Z" fill="#2356E7"/>
<path d="M77.3059 18.2802H71.4023V27.6536H77.3059V18.2802Z" fill="#2356E7"/>
<path d="M77.3063 18.2801H77.3943V18.1335H82.1934V14.0577H77.3943V10.1774H71.393V14.0577H68.7051V18.1335H71.393V20.7823C71.393 22.5026 71.9599 23.8807 73.0937 24.9363C74.1688 25.9333 75.5763 26.4513 77.3063 26.5002V18.2801Z" fill="#2356E7"/>
<path d="M82.1835 14.0577H86.9142L84.9984 18.2215L82.1835 18.1336V14.0577Z" fill="#2356E7"/>
<path d="M100.07 18.6614H99.3179L97.6465 14.0382H100.07V18.6614Z" fill="#2356E7"/>
<path d="M135.248 23.871H127.937V27.6536H135.248V23.871Z" fill="#2356E7"/>
</svg>
